<mxfile host="app.diagrams.net" modified="2023-04-16T14:01:48.624Z" agent="Mozilla/5.0 (Windows NT 10.0; Win64; x64) AppleWebKit/537.36 (KHTML, like Gecko) Chrome/112.0.0.0 Safari/537.36" etag="TTILShOdz-V6GCwFjiVY" version="21.1.8" type="device">
  <diagram id="xl-UDhk-vmxlbRlfUTU6" name="Страница 1">
    <mxGraphModel dx="2084" dy="1779" grid="1" gridSize="10" guides="1" tooltips="1" connect="1" arrows="1" fold="1" page="1" pageScale="1" pageWidth="827" pageHeight="1169" math="0" shadow="0">
      <root>
        <mxCell id="0" />
        <mxCell id="1" parent="0" />
        <mxCell id="O5rZSSV68CA4puXAP-Ws-46" value="" style="edgeStyle=orthogonalEdgeStyle;rounded=0;orthogonalLoop=1;jettySize=auto;html=1;fontSize=16;" edge="1" parent="1" source="pFHHEdU_0-kqcNkY8rEz-1" target="pFHHEdU_0-kqcNkY8rEz-2">
          <mxGeometry relative="1" as="geometry" />
        </mxCell>
        <mxCell id="pFHHEdU_0-kqcNkY8rEz-1" value="Автор" style="whiteSpace=wrap;html=1;align=center;rounded=0;fontSize=16;" vertex="1" parent="1">
          <mxGeometry x="365" y="60" width="120" height="60" as="geometry" />
        </mxCell>
        <mxCell id="pFHHEdU_0-kqcNkY8rEz-2" value="ID" style="ellipse;whiteSpace=wrap;html=1;align=center;rounded=0;fontSize=16;" vertex="1" parent="1">
          <mxGeometry x="375" y="-10" width="100" height="40" as="geometry" />
        </mxCell>
        <mxCell id="pFHHEdU_0-kqcNkY8rEz-3" value="Имя" style="ellipse;whiteSpace=wrap;html=1;align=center;rounded=0;fontSize=16;" vertex="1" parent="1">
          <mxGeometry x="485" y="-10" width="100" height="40" as="geometry" />
        </mxCell>
        <mxCell id="pFHHEdU_0-kqcNkY8rEz-4" value="Фамилия" style="ellipse;whiteSpace=wrap;html=1;align=center;rounded=0;fontSize=16;" vertex="1" parent="1">
          <mxGeometry x="595" y="-10" width="100" height="40" as="geometry" />
        </mxCell>
        <mxCell id="pFHHEdU_0-kqcNkY8rEz-5" value="Год рождения" style="ellipse;whiteSpace=wrap;html=1;align=center;rounded=0;fontSize=14;" vertex="1" parent="1">
          <mxGeometry x="705" y="-10" width="100" height="40" as="geometry" />
        </mxCell>
        <mxCell id="pFHHEdU_0-kqcNkY8rEz-6" value="Год смерти" style="ellipse;whiteSpace=wrap;html=1;align=center;rounded=0;fontSize=16;" vertex="1" parent="1">
          <mxGeometry x="820" y="-10" width="100" height="40" as="geometry" />
        </mxCell>
        <mxCell id="pFHHEdU_0-kqcNkY8rEz-7" value="" style="endArrow=none;html=1;rounded=0;fontSize=16;" edge="1" parent="1">
          <mxGeometry width="50" height="50" relative="1" as="geometry">
            <mxPoint x="644.5" y="50" as="sourcePoint" />
            <mxPoint x="644.5" y="30" as="targetPoint" />
          </mxGeometry>
        </mxCell>
        <mxCell id="pFHHEdU_0-kqcNkY8rEz-8" value="" style="endArrow=none;html=1;rounded=0;exitX=1;exitY=0.5;exitDx=0;exitDy=0;fontSize=16;" edge="1" parent="1">
          <mxGeometry width="50" height="50" relative="1" as="geometry">
            <mxPoint x="424.5" y="60" as="sourcePoint" />
            <mxPoint x="424.5" y="30" as="targetPoint" />
          </mxGeometry>
        </mxCell>
        <mxCell id="pFHHEdU_0-kqcNkY8rEz-9" value="" style="endArrow=none;html=1;rounded=0;fontSize=16;" edge="1" parent="1">
          <mxGeometry width="50" height="50" relative="1" as="geometry">
            <mxPoint x="425" y="50" as="sourcePoint" />
            <mxPoint x="870" y="50" as="targetPoint" />
          </mxGeometry>
        </mxCell>
        <mxCell id="pFHHEdU_0-kqcNkY8rEz-10" value="" style="endArrow=none;html=1;rounded=0;fontSize=16;" edge="1" parent="1">
          <mxGeometry width="50" height="50" relative="1" as="geometry">
            <mxPoint x="534.5" y="50" as="sourcePoint" />
            <mxPoint x="534.5" y="30" as="targetPoint" />
          </mxGeometry>
        </mxCell>
        <mxCell id="pFHHEdU_0-kqcNkY8rEz-11" value="" style="endArrow=none;html=1;rounded=0;fontSize=16;" edge="1" parent="1">
          <mxGeometry width="50" height="50" relative="1" as="geometry">
            <mxPoint x="754.5" y="50" as="sourcePoint" />
            <mxPoint x="754.5" y="30" as="targetPoint" />
          </mxGeometry>
        </mxCell>
        <mxCell id="pFHHEdU_0-kqcNkY8rEz-12" value="" style="endArrow=none;html=1;rounded=0;fontSize=16;" edge="1" parent="1">
          <mxGeometry width="50" height="50" relative="1" as="geometry">
            <mxPoint x="567.5" y="70" as="sourcePoint" />
            <mxPoint x="567.5" y="50" as="targetPoint" />
          </mxGeometry>
        </mxCell>
        <mxCell id="63GgBxCPVg3tJSuvB2tl-1" value="" style="endArrow=none;html=1;rounded=0;fontSize=16;" edge="1" parent="1">
          <mxGeometry width="50" height="50" relative="1" as="geometry">
            <mxPoint x="869.5" y="50" as="sourcePoint" />
            <mxPoint x="869.5" y="30" as="targetPoint" />
          </mxGeometry>
        </mxCell>
        <mxCell id="63GgBxCPVg3tJSuvB2tl-2" value="Страна" style="ellipse;whiteSpace=wrap;html=1;align=center;rounded=0;fontSize=16;" vertex="1" parent="1">
          <mxGeometry x="518" y="70" width="100" height="40" as="geometry" />
        </mxCell>
        <mxCell id="63GgBxCPVg3tJSuvB2tl-3" value="Язык произведений" style="ellipse;whiteSpace=wrap;html=1;align=center;rounded=0;fontSize=13;" vertex="1" parent="1">
          <mxGeometry x="638" y="70" width="100" height="40" as="geometry" />
        </mxCell>
        <mxCell id="63GgBxCPVg3tJSuvB2tl-4" value="" style="endArrow=none;html=1;rounded=0;fontSize=16;" edge="1" parent="1">
          <mxGeometry width="50" height="50" relative="1" as="geometry">
            <mxPoint x="687.5" y="70" as="sourcePoint" />
            <mxPoint x="687.5" y="50" as="targetPoint" />
          </mxGeometry>
        </mxCell>
        <mxCell id="63GgBxCPVg3tJSuvB2tl-5" value="" style="endArrow=none;html=1;rounded=0;fontSize=16;" edge="1" parent="1">
          <mxGeometry width="50" height="50" relative="1" as="geometry">
            <mxPoint x="807.5" y="70" as="sourcePoint" />
            <mxPoint x="807.5" y="50" as="targetPoint" />
          </mxGeometry>
        </mxCell>
        <mxCell id="63GgBxCPVg3tJSuvB2tl-6" value="Жанр" style="ellipse;whiteSpace=wrap;html=1;align=center;rounded=0;fontSize=16;" vertex="1" parent="1">
          <mxGeometry x="758" y="70" width="100" height="40" as="geometry" />
        </mxCell>
        <mxCell id="63GgBxCPVg3tJSuvB2tl-7" value="Книга" style="whiteSpace=wrap;html=1;align=center;rounded=0;fontSize=16;" vertex="1" parent="1">
          <mxGeometry x="365" y="250" width="120" height="60" as="geometry" />
        </mxCell>
        <mxCell id="63GgBxCPVg3tJSuvB2tl-8" value="ID" style="ellipse;whiteSpace=wrap;html=1;align=center;rounded=0;fontSize=16;" vertex="1" parent="1">
          <mxGeometry x="375" y="340" width="100" height="40" as="geometry" />
        </mxCell>
        <mxCell id="63GgBxCPVg3tJSuvB2tl-9" value="Название" style="ellipse;whiteSpace=wrap;html=1;align=center;rounded=0;fontSize=16;" vertex="1" parent="1">
          <mxGeometry x="485" y="340" width="100" height="40" as="geometry" />
        </mxCell>
        <mxCell id="63GgBxCPVg3tJSuvB2tl-10" value="&lt;font style=&quot;font-size: 13px;&quot;&gt;Год публикации&lt;/font&gt;" style="ellipse;whiteSpace=wrap;html=1;align=center;rounded=0;fontSize=16;" vertex="1" parent="1">
          <mxGeometry x="595" y="340" width="100" height="40" as="geometry" />
        </mxCell>
        <mxCell id="63GgBxCPVg3tJSuvB2tl-11" value="Жанр" style="ellipse;whiteSpace=wrap;html=1;align=center;rounded=0;fontSize=16;" vertex="1" parent="1">
          <mxGeometry x="705" y="340" width="100" height="40" as="geometry" />
        </mxCell>
        <mxCell id="63GgBxCPVg3tJSuvB2tl-13" value="" style="endArrow=none;html=1;rounded=0;fontSize=16;" edge="1" parent="1">
          <mxGeometry width="50" height="50" relative="1" as="geometry">
            <mxPoint x="644.5" y="400" as="sourcePoint" />
            <mxPoint x="644.5" y="380" as="targetPoint" />
          </mxGeometry>
        </mxCell>
        <mxCell id="63GgBxCPVg3tJSuvB2tl-14" value="" style="endArrow=none;html=1;rounded=0;fontSize=16;" edge="1" parent="1">
          <mxGeometry width="50" height="50" relative="1" as="geometry">
            <mxPoint x="425" y="400" as="sourcePoint" />
            <mxPoint x="424.5" y="380" as="targetPoint" />
          </mxGeometry>
        </mxCell>
        <mxCell id="63GgBxCPVg3tJSuvB2tl-15" value="" style="endArrow=none;html=1;rounded=0;fontSize=16;" edge="1" parent="1">
          <mxGeometry width="50" height="50" relative="1" as="geometry">
            <mxPoint x="425" y="400" as="sourcePoint" />
            <mxPoint x="755" y="400" as="targetPoint" />
          </mxGeometry>
        </mxCell>
        <mxCell id="63GgBxCPVg3tJSuvB2tl-16" value="" style="endArrow=none;html=1;rounded=0;fontSize=16;" edge="1" parent="1">
          <mxGeometry width="50" height="50" relative="1" as="geometry">
            <mxPoint x="534.5" y="400" as="sourcePoint" />
            <mxPoint x="534.5" y="380" as="targetPoint" />
          </mxGeometry>
        </mxCell>
        <mxCell id="63GgBxCPVg3tJSuvB2tl-17" value="" style="endArrow=none;html=1;rounded=0;fontSize=16;" edge="1" parent="1">
          <mxGeometry width="50" height="50" relative="1" as="geometry">
            <mxPoint x="754.5" y="400" as="sourcePoint" />
            <mxPoint x="754.5" y="380" as="targetPoint" />
          </mxGeometry>
        </mxCell>
        <mxCell id="63GgBxCPVg3tJSuvB2tl-18" value="" style="endArrow=none;html=1;rounded=0;fontSize=16;" edge="1" parent="1">
          <mxGeometry width="50" height="50" relative="1" as="geometry">
            <mxPoint x="570" y="420" as="sourcePoint" />
            <mxPoint x="570" y="400" as="targetPoint" />
          </mxGeometry>
        </mxCell>
        <mxCell id="63GgBxCPVg3tJSuvB2tl-20" value="Язык оригинала" style="ellipse;whiteSpace=wrap;html=1;align=center;rounded=0;fontSize=14;" vertex="1" parent="1">
          <mxGeometry x="520.5" y="420" width="100" height="40" as="geometry" />
        </mxCell>
        <mxCell id="63GgBxCPVg3tJSuvB2tl-21" value="Рейтинг" style="ellipse;whiteSpace=wrap;html=1;align=center;rounded=0;fontSize=16;" vertex="1" parent="1">
          <mxGeometry x="640.5" y="420" width="100" height="40" as="geometry" />
        </mxCell>
        <mxCell id="63GgBxCPVg3tJSuvB2tl-22" value="" style="endArrow=none;html=1;rounded=0;fontSize=16;" edge="1" parent="1">
          <mxGeometry width="50" height="50" relative="1" as="geometry">
            <mxPoint x="690" y="420" as="sourcePoint" />
            <mxPoint x="690" y="400" as="targetPoint" />
          </mxGeometry>
        </mxCell>
        <mxCell id="63GgBxCPVg3tJSuvB2tl-26" value="" style="endArrow=none;html=1;rounded=0;exitX=1;exitY=0.5;exitDx=0;exitDy=0;fontSize=16;" edge="1" parent="1">
          <mxGeometry width="50" height="50" relative="1" as="geometry">
            <mxPoint x="424.5" y="340" as="sourcePoint" />
            <mxPoint x="424.5" y="310" as="targetPoint" />
          </mxGeometry>
        </mxCell>
        <mxCell id="O5rZSSV68CA4puXAP-Ws-1" value="" style="fontSize=16;html=1;endArrow=ERmany;startArrow=ERmany;rounded=0;" edge="1" parent="1" source="63GgBxCPVg3tJSuvB2tl-7">
          <mxGeometry width="100" height="100" relative="1" as="geometry">
            <mxPoint x="425" y="220" as="sourcePoint" />
            <mxPoint x="424.5" y="120" as="targetPoint" />
            <Array as="points" />
          </mxGeometry>
        </mxCell>
        <mxCell id="O5rZSSV68CA4puXAP-Ws-2" value="n" style="text;strokeColor=none;fillColor=none;spacingLeft=4;spacingRight=4;overflow=hidden;rotatable=0;points=[[0,0.5],[1,0.5]];portConstraint=eastwest;fontSize=16;rounded=0;" vertex="1" parent="1">
          <mxGeometry x="430" y="130" width="20" height="20" as="geometry" />
        </mxCell>
        <mxCell id="O5rZSSV68CA4puXAP-Ws-3" value="m" style="text;strokeColor=none;fillColor=none;spacingLeft=4;spacingRight=4;overflow=hidden;rotatable=0;points=[[0,0.5],[1,0.5]];portConstraint=eastwest;fontSize=16;rounded=0;" vertex="1" parent="1">
          <mxGeometry x="430" y="220" width="20" height="20" as="geometry" />
        </mxCell>
        <mxCell id="O5rZSSV68CA4puXAP-Ws-4" value="&lt;font style=&quot;font-size: 16px;&quot;&gt;пишет&lt;/font&gt;" style="rhombus;whiteSpace=wrap;html=1;fontSize=16;" vertex="1" parent="1">
          <mxGeometry x="377.5" y="150" width="95" height="70" as="geometry" />
        </mxCell>
        <mxCell id="O5rZSSV68CA4puXAP-Ws-5" value="Серия" style="whiteSpace=wrap;html=1;align=center;rounded=0;fontSize=16;" vertex="1" parent="1">
          <mxGeometry x="60" y="250" width="120" height="60" as="geometry" />
        </mxCell>
        <mxCell id="O5rZSSV68CA4puXAP-Ws-6" value="Издательство" style="ellipse;whiteSpace=wrap;html=1;align=center;rounded=0;fontSize=16;" vertex="1" parent="1">
          <mxGeometry x="-260" y="340" width="100" height="40" as="geometry" />
        </mxCell>
        <mxCell id="O5rZSSV68CA4puXAP-Ws-7" value="Жанр" style="ellipse;whiteSpace=wrap;html=1;align=center;rounded=0;fontSize=16;" vertex="1" parent="1">
          <mxGeometry x="-150" y="340" width="100" height="40" as="geometry" />
        </mxCell>
        <mxCell id="O5rZSSV68CA4puXAP-Ws-8" value="Название" style="ellipse;whiteSpace=wrap;html=1;align=center;rounded=0;fontSize=16;" vertex="1" parent="1">
          <mxGeometry x="-40" y="340" width="100" height="40" as="geometry" />
        </mxCell>
        <mxCell id="O5rZSSV68CA4puXAP-Ws-9" value="ID" style="ellipse;whiteSpace=wrap;html=1;align=center;rounded=0;fontSize=16;" vertex="1" parent="1">
          <mxGeometry x="70" y="340" width="100" height="40" as="geometry" />
        </mxCell>
        <mxCell id="O5rZSSV68CA4puXAP-Ws-10" value="" style="endArrow=none;html=1;rounded=0;fontSize=16;" edge="1" parent="1">
          <mxGeometry width="50" height="50" relative="1" as="geometry">
            <mxPoint x="9.5" y="400" as="sourcePoint" />
            <mxPoint x="9.5" y="380" as="targetPoint" />
          </mxGeometry>
        </mxCell>
        <mxCell id="O5rZSSV68CA4puXAP-Ws-11" value="" style="endArrow=none;html=1;rounded=0;fontSize=16;" edge="1" parent="1">
          <mxGeometry width="50" height="50" relative="1" as="geometry">
            <mxPoint x="-210" y="400" as="sourcePoint" />
            <mxPoint x="-210.5" y="380" as="targetPoint" />
          </mxGeometry>
        </mxCell>
        <mxCell id="O5rZSSV68CA4puXAP-Ws-12" value="" style="endArrow=none;html=1;rounded=0;fontSize=16;" edge="1" parent="1">
          <mxGeometry width="50" height="50" relative="1" as="geometry">
            <mxPoint x="-210" y="400" as="sourcePoint" />
            <mxPoint x="120" y="400" as="targetPoint" />
          </mxGeometry>
        </mxCell>
        <mxCell id="O5rZSSV68CA4puXAP-Ws-13" value="" style="endArrow=none;html=1;rounded=0;fontSize=16;" edge="1" parent="1">
          <mxGeometry width="50" height="50" relative="1" as="geometry">
            <mxPoint x="-100.5" y="400" as="sourcePoint" />
            <mxPoint x="-100.5" y="380" as="targetPoint" />
          </mxGeometry>
        </mxCell>
        <mxCell id="O5rZSSV68CA4puXAP-Ws-14" value="" style="endArrow=none;html=1;rounded=0;fontSize=16;" edge="1" parent="1">
          <mxGeometry width="50" height="50" relative="1" as="geometry">
            <mxPoint x="119.5" y="400" as="sourcePoint" />
            <mxPoint x="119.5" y="380" as="targetPoint" />
          </mxGeometry>
        </mxCell>
        <mxCell id="O5rZSSV68CA4puXAP-Ws-15" value="" style="endArrow=none;html=1;rounded=0;fontSize=16;" edge="1" parent="1">
          <mxGeometry width="50" height="50" relative="1" as="geometry">
            <mxPoint x="-150.5" y="420" as="sourcePoint" />
            <mxPoint x="-150.5" y="400" as="targetPoint" />
          </mxGeometry>
        </mxCell>
        <mxCell id="O5rZSSV68CA4puXAP-Ws-16" value="&lt;font style=&quot;font-size: 14px;&quot;&gt;Средний рейтинг&lt;/font&gt;" style="ellipse;whiteSpace=wrap;html=1;align=center;rounded=0;fontSize=16;" vertex="1" parent="1">
          <mxGeometry x="-200" y="420" width="100" height="40" as="geometry" />
        </mxCell>
        <mxCell id="O5rZSSV68CA4puXAP-Ws-17" value="&lt;font style=&quot;font-size: 13px;&quot;&gt;Год первой публикации&lt;/font&gt;" style="ellipse;whiteSpace=wrap;html=1;align=center;rounded=0;fontSize=16;" vertex="1" parent="1">
          <mxGeometry x="-80" y="420" width="100" height="40" as="geometry" />
        </mxCell>
        <mxCell id="O5rZSSV68CA4puXAP-Ws-18" value="" style="endArrow=none;html=1;rounded=0;fontSize=16;" edge="1" parent="1">
          <mxGeometry width="50" height="50" relative="1" as="geometry">
            <mxPoint x="-30.5" y="420" as="sourcePoint" />
            <mxPoint x="-30.5" y="400" as="targetPoint" />
          </mxGeometry>
        </mxCell>
        <mxCell id="O5rZSSV68CA4puXAP-Ws-19" value="" style="endArrow=none;html=1;rounded=0;exitX=1;exitY=0.5;exitDx=0;exitDy=0;fontSize=16;" edge="1" parent="1">
          <mxGeometry width="50" height="50" relative="1" as="geometry">
            <mxPoint x="119.5" y="340" as="sourcePoint" />
            <mxPoint x="119.5" y="310" as="targetPoint" />
          </mxGeometry>
        </mxCell>
        <mxCell id="O5rZSSV68CA4puXAP-Ws-20" value="" style="fontSize=16;html=1;endArrow=ERmany;startArrow=ERmany;rounded=0;entryX=0;entryY=0.5;entryDx=0;entryDy=0;exitX=1;exitY=0.5;exitDx=0;exitDy=0;" edge="1" parent="1" source="O5rZSSV68CA4puXAP-Ws-5" target="63GgBxCPVg3tJSuvB2tl-7">
          <mxGeometry width="100" height="100" relative="1" as="geometry">
            <mxPoint x="187.5" y="190" as="sourcePoint" />
            <mxPoint x="187" y="60" as="targetPoint" />
            <Array as="points" />
          </mxGeometry>
        </mxCell>
        <mxCell id="O5rZSSV68CA4puXAP-Ws-21" value="n" style="text;strokeColor=none;fillColor=none;spacingLeft=4;spacingRight=4;overflow=hidden;rotatable=0;points=[[0,0.5],[1,0.5]];portConstraint=eastwest;fontSize=16;rounded=0;" vertex="1" parent="1">
          <mxGeometry x="330" y="256" width="20" height="20" as="geometry" />
        </mxCell>
        <mxCell id="O5rZSSV68CA4puXAP-Ws-22" value="m" style="text;strokeColor=none;fillColor=none;spacingLeft=4;spacingRight=4;overflow=hidden;rotatable=0;points=[[0,0.5],[1,0.5]];portConstraint=eastwest;fontSize=16;rounded=0;" vertex="1" parent="1">
          <mxGeometry x="200" y="256" width="20" height="20" as="geometry" />
        </mxCell>
        <mxCell id="O5rZSSV68CA4puXAP-Ws-23" value="&lt;font style=&quot;font-size: 16px;&quot;&gt;издает&lt;/font&gt;" style="rhombus;whiteSpace=wrap;html=1;fontSize=16;" vertex="1" parent="1">
          <mxGeometry x="230" y="245" width="95" height="70" as="geometry" />
        </mxCell>
        <mxCell id="O5rZSSV68CA4puXAP-Ws-25" value="&lt;font style=&quot;font-size: 16px;&quot;&gt;Книжная полка&lt;/font&gt;" style="whiteSpace=wrap;html=1;align=center;rounded=0;fontSize=16;" vertex="1" parent="1">
          <mxGeometry x="60" y="60" width="120" height="60" as="geometry" />
        </mxCell>
        <mxCell id="O5rZSSV68CA4puXAP-Ws-28" value="Название" style="ellipse;whiteSpace=wrap;html=1;align=center;rounded=0;fontSize=16;" vertex="1" parent="1">
          <mxGeometry x="-40" y="-10" width="100" height="40" as="geometry" />
        </mxCell>
        <mxCell id="O5rZSSV68CA4puXAP-Ws-29" value="ID" style="ellipse;whiteSpace=wrap;html=1;align=center;rounded=0;fontSize=16;" vertex="1" parent="1">
          <mxGeometry x="70" y="-10" width="100" height="40" as="geometry" />
        </mxCell>
        <mxCell id="O5rZSSV68CA4puXAP-Ws-30" value="" style="endArrow=none;html=1;rounded=0;fontSize=16;" edge="1" parent="1">
          <mxGeometry width="50" height="50" relative="1" as="geometry">
            <mxPoint x="9.5" y="50" as="sourcePoint" />
            <mxPoint x="9.5" y="30" as="targetPoint" />
          </mxGeometry>
        </mxCell>
        <mxCell id="O5rZSSV68CA4puXAP-Ws-32" value="" style="endArrow=none;html=1;rounded=0;fontSize=16;" edge="1" parent="1">
          <mxGeometry width="50" height="50" relative="1" as="geometry">
            <mxPoint x="10" y="50" as="sourcePoint" />
            <mxPoint x="120" y="50" as="targetPoint" />
          </mxGeometry>
        </mxCell>
        <mxCell id="O5rZSSV68CA4puXAP-Ws-41" value="" style="fontSize=16;html=1;endArrow=ERmany;startArrow=ERmany;rounded=0;entryX=0;entryY=0;entryDx=0;entryDy=0;exitX=1;exitY=1;exitDx=0;exitDy=0;" edge="1" parent="1" source="O5rZSSV68CA4puXAP-Ws-25" target="63GgBxCPVg3tJSuvB2tl-7">
          <mxGeometry width="100" height="100" relative="1" as="geometry">
            <mxPoint x="160" y="185" as="sourcePoint" />
            <mxPoint x="345" y="185" as="targetPoint" />
            <Array as="points" />
          </mxGeometry>
        </mxCell>
        <mxCell id="O5rZSSV68CA4puXAP-Ws-42" value="n" style="text;strokeColor=none;fillColor=none;spacingLeft=4;spacingRight=4;overflow=hidden;rotatable=0;points=[[0,0.5],[1,0.5]];portConstraint=eastwest;fontSize=16;rounded=0;" vertex="1" parent="1">
          <mxGeometry x="330" y="200" width="20" height="20" as="geometry" />
        </mxCell>
        <mxCell id="O5rZSSV68CA4puXAP-Ws-43" value="m" style="text;strokeColor=none;fillColor=none;spacingLeft=4;spacingRight=4;overflow=hidden;rotatable=0;points=[[0,0.5],[1,0.5]];portConstraint=eastwest;fontSize=16;rounded=0;" vertex="1" parent="1">
          <mxGeometry x="200" y="110" width="20" height="20" as="geometry" />
        </mxCell>
        <mxCell id="O5rZSSV68CA4puXAP-Ws-44" value="&lt;span style=&quot;font-size: 16px;&quot;&gt;включает&lt;/span&gt;" style="rhombus;whiteSpace=wrap;html=1;fontSize=16;" vertex="1" parent="1">
          <mxGeometry x="230" y="150" width="95" height="70" as="geometry" />
        </mxCell>
        <mxCell id="O5rZSSV68CA4puXAP-Ws-45" value="" style="endArrow=none;html=1;rounded=0;exitX=1;exitY=0.5;exitDx=0;exitDy=0;fontSize=16;" edge="1" parent="1">
          <mxGeometry width="50" height="50" relative="1" as="geometry">
            <mxPoint x="119.5" y="60" as="sourcePoint" />
            <mxPoint x="119.5" y="30" as="targetPoint" />
          </mxGeometry>
        </mxCell>
        <mxCell id="O5rZSSV68CA4puXAP-Ws-51" value="Пользователь" style="whiteSpace=wrap;html=1;align=center;rounded=0;fontSize=16;" vertex="1" parent="1">
          <mxGeometry x="-160" y="160" width="120" height="60" as="geometry" />
        </mxCell>
        <mxCell id="O5rZSSV68CA4puXAP-Ws-52" value="Логин" style="ellipse;whiteSpace=wrap;html=1;align=center;rounded=0;fontSize=16;" vertex="1" parent="1">
          <mxGeometry x="-260" y="90" width="100" height="40" as="geometry" />
        </mxCell>
        <mxCell id="O5rZSSV68CA4puXAP-Ws-53" value="ID" style="ellipse;whiteSpace=wrap;html=1;align=center;rounded=0;fontSize=16;" vertex="1" parent="1">
          <mxGeometry x="-150" y="90" width="100" height="40" as="geometry" />
        </mxCell>
        <mxCell id="O5rZSSV68CA4puXAP-Ws-54" value="" style="endArrow=none;html=1;rounded=0;fontSize=16;" edge="1" parent="1">
          <mxGeometry width="50" height="50" relative="1" as="geometry">
            <mxPoint x="-210.5" y="150" as="sourcePoint" />
            <mxPoint x="-210.5" y="130" as="targetPoint" />
          </mxGeometry>
        </mxCell>
        <mxCell id="O5rZSSV68CA4puXAP-Ws-55" value="" style="endArrow=none;html=1;rounded=0;fontSize=16;" edge="1" parent="1">
          <mxGeometry width="50" height="50" relative="1" as="geometry">
            <mxPoint x="-320" y="150" as="sourcePoint" />
            <mxPoint x="-100" y="150" as="targetPoint" />
          </mxGeometry>
        </mxCell>
        <mxCell id="O5rZSSV68CA4puXAP-Ws-57" value="" style="endArrow=none;html=1;rounded=0;exitX=1;exitY=0.5;exitDx=0;exitDy=0;fontSize=16;" edge="1" parent="1">
          <mxGeometry width="50" height="50" relative="1" as="geometry">
            <mxPoint x="-100.5" y="160" as="sourcePoint" />
            <mxPoint x="-100.5" y="130" as="targetPoint" />
          </mxGeometry>
        </mxCell>
        <mxCell id="JssQLvB2TnN2tymG05G_-1" value="Пароль" style="ellipse;whiteSpace=wrap;html=1;align=center;rounded=0;fontSize=16;" vertex="1" parent="1">
          <mxGeometry x="-370" y="90" width="100" height="40" as="geometry" />
        </mxCell>
        <mxCell id="JssQLvB2TnN2tymG05G_-2" value="" style="endArrow=none;html=1;rounded=0;fontSize=16;" edge="1" parent="1">
          <mxGeometry width="50" height="50" relative="1" as="geometry">
            <mxPoint x="-320.5" y="150" as="sourcePoint" />
            <mxPoint x="-320.5" y="130" as="targetPoint" />
          </mxGeometry>
        </mxCell>
        <mxCell id="JssQLvB2TnN2tymG05G_-3" value="Категория" style="ellipse;whiteSpace=wrap;html=1;align=center;rounded=0;fontSize=16;" vertex="1" parent="1">
          <mxGeometry x="-300" y="170" width="100" height="40" as="geometry" />
        </mxCell>
        <mxCell id="JssQLvB2TnN2tymG05G_-4" value="" style="endArrow=none;html=1;rounded=0;fontSize=16;" edge="1" parent="1">
          <mxGeometry width="50" height="50" relative="1" as="geometry">
            <mxPoint x="-250.5" y="170" as="sourcePoint" />
            <mxPoint x="-250.5" y="150" as="targetPoint" />
          </mxGeometry>
        </mxCell>
        <mxCell id="JssQLvB2TnN2tymG05G_-5" value="" style="endArrow=none;html=1;rounded=0;exitX=1;exitY=0;exitDx=0;exitDy=0;entryX=0;entryY=1;entryDx=0;entryDy=0;fontSize=16;" edge="1" parent="1" source="O5rZSSV68CA4puXAP-Ws-51" target="O5rZSSV68CA4puXAP-Ws-25">
          <mxGeometry width="50" height="50" relative="1" as="geometry">
            <mxPoint x="-240.5" y="180" as="sourcePoint" />
            <mxPoint x="-240.5" y="160" as="targetPoint" />
            <Array as="points" />
          </mxGeometry>
        </mxCell>
        <mxCell id="JssQLvB2TnN2tymG05G_-6" value="&lt;span style=&quot;font-size: 16px;&quot;&gt;собирает&lt;/span&gt;" style="rhombus;whiteSpace=wrap;html=1;fontSize=16;" vertex="1" parent="1">
          <mxGeometry x="-35" y="105" width="95" height="70" as="geometry" />
        </mxCell>
      </root>
    </mxGraphModel>
  </diagram>
</mxfile>
